<?xml version="1.0" encoding="iso-8859-1"?>
<!-- Generator: Adobe Illustrator 19.0.0, SVG Export Plug-In . SVG Version: 6.00 Build 0)  -->
<svg version="1.1" id="Capa_1" xmlns="http://www.w3.org/2000/svg" xmlns:xlink="http://www.w3.org/1999/xlink" x="0px" y="0px"
	 viewBox="0 0 512 512" style="enable-background:new 0 0 512 512;" xml:space="preserve">
<g>
	<path style="fill:#3E4954;" d="M194.189,460.491h-92.716l7.817,39.087c1.444,7.223,7.786,12.422,15.153,12.422h46.776
		c7.366,0,13.708-5.199,15.153-12.422L194.189,460.491z"/>
	<path style="fill:#3E4954;" d="M400.225,460.491h-92.716l7.817,39.087c1.444,7.223,7.787,12.422,15.153,12.422h46.776
		c7.366,0,13.708-5.199,15.153-12.422L400.225,460.491z"/>
</g>
<path style="fill:#4D5967;" d="M436.281,482.64H75.719c-17.069,0-30.905-13.836-30.905-30.905V30.905
	C44.814,13.836,58.65,0,75.719,0h360.56c17.069,0,30.905,13.836,30.905,30.905v420.829
	C467.186,468.803,453.349,482.64,436.281,482.64z"/>
<path style="fill:#3E4954;" d="M467.186,451.734V30.905c0-8.351-3.318-15.922-8.701-21.484
	c-8.489,3.441-14.478,11.761-14.478,21.484v420.829c0,4.261-3.466,7.726-7.726,7.726H75.719c-9.724,0-18.044,5.989-21.484,14.478
	c5.562,5.383,13.134,8.701,21.484,8.701h360.561C453.349,482.64,467.186,468.802,467.186,451.734z"/>
<rect x="106.624" y="61.811" style="fill:#596775;" width="298.753" height="359.018"/>
<path style="fill:#3E4954;" d="M405.375,61.811L405.375,61.811c-12.801,0-23.179,10.378-23.179,23.179v312.66H129.804
	c-12.801,0-23.179,10.378-23.179,23.179l0,0h298.75V61.811z"/>
<path style="fill:#FFF9EB;" d="M256,334.036c-24.786,0-48.074-9.638-65.575-27.141c-17.503-17.501-27.141-40.789-27.141-65.575
	s9.638-48.074,27.141-65.575c17.501-17.502,40.79-27.141,65.575-27.141s48.074,9.638,65.575,27.141
	c17.502,17.501,27.141,40.79,27.141,65.575s-9.638,48.074-27.141,65.575C304.074,324.398,280.786,334.036,256,334.036z"/>
<path style="fill:#D3CDBF;" d="M325.537,241.318c0.001,37.901-31.637,69.54-69.539,69.539c-18.594,0-36.061-7.228-49.183-20.351
	l-16.39,16.389c17.501,17.502,40.788,27.14,65.573,27.141c51.148,0.001,92.72-41.57,92.718-92.718
	c-0.001-24.785-9.639-48.072-27.141-65.573l-16.389,16.39C318.309,205.257,325.537,222.724,325.537,241.318z"/>
<path style="fill:#B6B0A2;" d="M256,334.036c2.595,0,5.169-0.13,7.726-0.34v-73.723l52.145,52.145
	c1.957-1.661,3.869-3.388,5.704-5.223c1.835-1.835,3.563-3.747,5.223-5.704l-52.145-52.145h73.723
	c0.209-2.557,0.339-5.131,0.339-7.726c0-2.595-0.13-5.169-0.339-7.726h-73.723l52.145-52.145c-1.66-1.957-3.388-3.869-5.223-5.704
	c-1.835-1.835-3.747-3.562-5.704-5.223l-52.145,52.145v-73.723c-2.557-0.21-5.131-0.34-7.726-0.34c-2.595,0-5.169,0.13-7.726,0.34
	v73.723l-52.145-52.145c-1.957,1.661-3.869,3.388-5.704,5.223c-1.835,1.835-3.563,3.747-5.223,5.704l52.145,52.145h-73.723
	c-0.209,2.557-0.339,5.131-0.339,7.726c0,2.595,0.13,5.169,0.339,7.726h73.723l-52.145,52.145c1.66,1.957,3.388,3.869,5.223,5.704
	c1.835,1.835,3.747,3.562,5.704,5.223l52.145-52.145v73.723C250.831,333.906,253.405,334.036,256,334.036z"/>
<path style="fill:#D3CDBF;" d="M288.796,208.524c18.083,18.083,18.083,47.508,0,65.592c-18.083,18.083-47.508,18.083-65.592,0
	c-18.084-18.083-18.083-47.508,0-65.592S270.712,190.441,288.796,208.524z"/>
<path style="fill:#B6B0A2;" d="M252.647,264.262c-10.814-1.545-21.718,2.129-29.443,9.854l0,0c18.083,18.083,47.508,18.083,65.592,0
	c18.083-18.084,18.083-47.508,0-65.592l0,0c-7.724,7.724-11.399,18.629-9.854,29.443
	C281.147,253.394,268.068,266.466,252.647,264.262z"/>
<g>
	<rect x="389.924" y="97.352" style="fill:#3E4954;" width="30.905" height="82.414"/>
	<rect x="389.924" y="302.873" style="fill:#3E4954;" width="30.905" height="82.414"/>
</g>
<g>
</g>
<g>
</g>
<g>
</g>
<g>
</g>
<g>
</g>
<g>
</g>
<g>
</g>
<g>
</g>
<g>
</g>
<g>
</g>
<g>
</g>
<g>
</g>
<g>
</g>
<g>
</g>
<g>
</g>
</svg>
