<?xml version="1.0"?>
<svg xmlns="http://www.w3.org/2000/svg" height="512px" viewBox="0 -21 426.66667 426" width="512px" class=""><g><path d="m64 277.667969h298.667969v-213.335938h-298.667969zm224-149.335938h21.332031c5.890625 0 10.667969 4.777344 10.667969 10.667969s-4.777344 10.667969-10.667969 10.667969h-21.332031c-5.890625 0-10.667969-4.777344-10.667969-10.667969s4.777344-10.667969 10.667969-10.667969zm0 64h21.332031c5.890625 0 10.667969 4.777344 10.667969 10.667969s-4.777344 10.667969-10.667969 10.667969h-21.332031c-5.890625 0-10.667969-4.777344-10.667969-10.667969s4.777344-10.667969 10.667969-10.667969zm-117.332031-85.332031c35.34375 0 64 28.652344 64 64s-28.65625 64-64 64c-35.347657 0-64-28.652344-64-64 .039062-35.332031 28.667969-63.960938 64-64zm0 0" data-original="#000000" class="active-path" data-old_color="#000000" fill="#D61F1F"/><path d="m213.332031 171c0 23.5625-19.101562 42.667969-42.664062 42.667969-23.566407 0-42.667969-19.105469-42.667969-42.667969s19.101562-42.667969 42.667969-42.667969c23.5625 0 42.664062 19.105469 42.664062 42.667969zm0 0" data-original="#000000" class="active-path" data-old_color="#000000" fill="#D61F1F"/><path d="m394.667969.332031h-362.667969c-17.664062.019531-31.9804688 14.335938-32 32v277.335938c.0195312 17.664062 14.335938 31.980469 32 32h32v32c0 5.890625 4.777344 10.664062 10.667969 10.664062h42.664062c5.890625 0 10.667969-4.773437 10.667969-10.664062v-32h170.667969v32c0 5.890625 4.773437 10.664062 10.664062 10.664062h42.667969c5.890625 0 10.667969-4.773437 10.667969-10.664062v-32h32c17.664062-.019531 31.980469-14.335938 32-32v-277.335938c-.019531-17.664062-14.335938-31.980469-32-32zm-10.667969 288c0 5.890625-4.777344 10.667969-10.667969 10.667969h-320c-5.890625 0-10.664062-4.777344-10.664062-10.667969v-234.664062c0-5.890625 4.773437-10.667969 10.664062-10.667969h320c5.890625 0 10.667969 4.777344 10.667969 10.667969zm0 0" data-original="#000000" class="active-path" data-old_color="#000000" fill="#D61F1F"/></g> </svg>
