<?xml version="1.0"?>
<svg xmlns="http://www.w3.org/2000/svg" id="Capa_1" enable-background="new 0 0 512 512" height="512px" viewBox="0 0 512 512" width="512px"><g><path d="m241 285v-135h-45c-41.4 0-75 33.6-75 75v151c0 74.399 60.601 136 135 136s135-61.601 135-136v-151c0-41.4-33.6-75-75-75h-45v135z" data-original="#000000" class="active-path" data-old_color="#000000" fill="#D61F1F"/><path d="m61 0v15c0 24.899 20.099 45 45 45h300c8.401 0 15 6.599 15 15 0 8.399-6.599 15-15 15h-120c-24.901 0-45 20.099-45 45v15h30v-15c0-8.401 6.599-15 15-15h120c24.901 0 45-20.101 45-45 0-24.901-20.099-45-45-45h-300c-8.401 0-15-6.601-15-15v-15z" data-original="#000000" class="active-path" data-old_color="#000000" fill="#D61F1F"/></g> </svg>
