<?xml version="1.0" encoding="iso-8859-1"?>
<!-- Generator: Adobe Illustrator 19.0.0, SVG Export Plug-In . SVG Version: 6.00 Build 0)  -->
<svg version="1.1" id="Layer_1" xmlns="http://www.w3.org/2000/svg" xmlns:xlink="http://www.w3.org/1999/xlink" x="0px" y="0px"
	 viewBox="0 0 491.52 491.52" style="enable-background:new 0 0 491.52 491.52;" xml:space="preserve">
<polygon style="fill:#3A556A;" points="373.293,491.52 118.227,491.52 159.614,413.228 331.906,413.228 "/>
<path style="fill:#64798A;" d="M477.085,70.466H14.439C6.465,70.466,0,76.93,0,84.904v319.286c0,7.973,6.465,14.437,14.439,14.437
	h462.646c7.972,0,14.435-6.464,14.435-14.437V84.904C491.52,76.93,485.057,70.466,477.085,70.466z"/>
<rect x="17.874" y="88.34" style="fill:#EBF0F3;" width="455.782" height="268.134"/>
<circle style="fill:#3A556A;" cx="245.76" cy="387.994" r="16.778"/>
<path style="fill:#FCD462;" d="M307.795,272.798c13.663-14.954,22.067-34.793,22.067-56.645c0-46.448-37.654-84.102-84.1-84.102
	c-46.449,0-84.103,37.654-84.103,84.102c0,21.852,8.404,41.692,22.067,56.645H307.795z"/>
<g>
	<path style="fill:#DC8744;" d="M199.079,272.798h14.391c-19.669-11.237-32.954-32.372-32.954-56.645
		c0-36.033,29.21-65.244,65.245-65.244c36.031,0,65.243,29.211,65.243,65.244c0,24.274-13.285,45.409-32.954,56.645h14.389
		c16.32-13.462,26.721-33.839,26.721-56.645c0-40.538-32.863-73.4-73.399-73.4c-40.538,0-73.401,32.862-73.401,73.4
		C172.36,238.959,182.761,259.336,199.079,272.798z"/>
	<path style="fill:#DC8744;" d="M243.072,266.858v-8.93c-11.18-1.14-21.215-5.585-30.095-13.33l8.93-10.642
		c6.849,5.953,13.898,9.497,21.165,10.642v-23.733c-9.219-2.2-15.968-5.097-20.249-8.686c-4.281-3.589-6.421-8.91-6.421-15.963
		c0-7.053,2.459-12.822,7.397-17.312c4.938-4.485,11.359-6.929,19.273-7.337v-6.118h7.825v6.237
		c8.97,0.657,17.452,3.713,25.446,9.179l-7.954,11.255c-5.386-3.833-11.21-6.197-17.491-7.098v22.997h0.368
		c9.378,2.205,16.267,5.182,20.667,8.93c4.41,3.753,6.61,9.199,6.61,16.332c0,7.138-2.529,12.952-7.586,17.432
		c-5.057,4.49-11.737,6.934-20.06,7.342v8.805H243.072z M234.441,187.897c-2.081,1.832-3.116,4.117-3.116,6.849
		c0,2.733,0.816,4.893,2.449,6.481c1.623,1.593,4.729,3.121,9.298,4.589v-21.165C239.398,184.98,236.521,186.06,234.441,187.897z
		 M260.195,241.536c2.28-1.872,3.425-4.236,3.425-7.093c0-2.852-0.896-5.117-2.688-6.79c-1.802-1.673-5.147-3.24-10.035-4.709
		v22.016C254.809,244.558,257.905,243.413,260.195,241.536z"/>
</g>
<circle style="fill:#FCD462;" cx="345.088" cy="57.226" r="57.226"/>
<g>
	<path style="fill:#DC8744;" d="M345.105,7.282c-27.583,0-49.944,22.361-49.944,49.944c0,27.583,22.361,49.944,49.944,49.944
		c27.583,0,49.944-22.361,49.944-49.944C395.049,29.643,372.688,7.282,345.105,7.282z M345.105,101.62
		c-24.518,0-44.395-19.876-44.395-44.394c0-24.518,19.876-44.395,44.395-44.395c24.518,0,44.395,19.876,44.395,44.395
		C389.499,81.744,369.623,101.62,345.105,101.62z"/>
	<path style="fill:#DC8744;" d="M343.276,91.728v-6.076c-7.607-0.776-14.435-3.8-20.478-9.07l6.076-7.241
		c4.661,4.051,9.456,6.462,14.401,7.241V60.432c-6.273-1.497-10.865-3.468-13.778-5.91c-2.913-2.442-4.369-6.063-4.369-10.862
		s1.673-8.725,5.033-11.78c3.36-3.052,7.729-4.715,13.114-4.992v-4.163h5.324v4.244c6.103,0.447,11.875,2.527,17.314,6.246
		l-5.412,7.658c-3.665-2.608-7.628-4.217-11.902-4.83V51.69h0.251c6.381,1.5,11.069,3.526,14.063,6.076
		c3.001,2.554,4.498,6.259,4.498,11.113c0,4.857-1.721,8.813-5.162,11.861c-3.441,3.055-7.987,4.718-13.65,4.996v5.992H343.276z
		 M337.403,38c-1.416,1.246-2.12,2.801-2.12,4.661c0,1.859,0.555,3.329,1.666,4.41c1.104,1.084,3.218,2.124,6.327,3.123V35.792
		C340.776,36.015,338.818,36.75,337.403,38z M354.927,74.498c1.551-1.274,2.33-2.882,2.33-4.826c0-1.941-0.61-3.482-1.829-4.62
		c-1.226-1.138-3.502-2.205-6.828-3.204v14.981C351.262,76.554,353.369,75.775,354.927,74.498z"/>
</g>
<circle style="fill:#FCD462;" cx="414.157" cy="149.043" r="48.512"/>
<g>
	<path style="fill:#DC8744;" d="M414.141,106.712c-23.383,0-42.34,18.956-42.34,42.34c0,23.383,18.956,42.34,42.34,42.34
		c23.383,0,42.34-18.956,42.34-42.34C456.48,125.668,437.524,106.712,414.141,106.712z M414.141,186.686
		c-20.785,0-37.635-16.85-37.635-37.635c0-20.785,16.85-37.635,37.635-37.635c20.785,0,37.635,16.85,37.635,37.635
		C451.776,169.836,434.926,186.686,414.141,186.686z"/>
	<path style="fill:#DC8744;" d="M412.59,178.299v-5.151c-6.449-0.658-12.237-3.222-17.36-7.689l5.151-6.139
		c3.951,3.434,8.017,5.478,12.209,6.139v-13.69c-5.318-1.269-9.211-2.94-11.68-5.01c-2.469-2.07-3.704-5.14-3.704-9.208
		s1.418-7.396,4.267-9.986c2.848-2.587,6.552-3.997,11.118-4.232v-3.529h4.514v3.598c5.174,0.379,10.067,2.142,14.678,5.295
		l-4.588,6.492c-3.107-2.211-6.466-3.575-10.09-4.094v13.265h0.213c5.409,1.272,9.383,2.989,11.922,5.151
		c2.544,2.165,3.813,5.306,3.813,9.421c0,4.117-1.459,7.471-4.376,10.055c-2.917,2.59-6.771,4-11.571,4.235v5.079H412.59z
		 M407.611,132.752c-1.2,1.057-1.797,2.375-1.797,3.951s0.471,2.822,1.413,3.738c0.936,0.919,2.728,1.8,5.364,2.647V130.88
		C410.471,131.07,408.812,131.693,407.611,132.752z M422.467,163.693c1.315-1.08,1.975-2.443,1.975-4.092
		c0-1.645-0.517-2.952-1.551-3.916c-1.039-0.965-2.969-1.869-5.789-2.716v12.7C419.361,165.436,421.147,164.776,422.467,163.693z"/>
</g>
<path style="fill:#64798A;" d="M349.188,266.466H142.334c-2.956,0-5.352,2.396-5.352,5.351c0,2.955,2.396,5.351,5.352,5.351h206.854
	c2.954,0,5.35-2.396,5.35-5.351C354.538,268.862,352.142,266.466,349.188,266.466z"/>
<g>
</g>
<g>
</g>
<g>
</g>
<g>
</g>
<g>
</g>
<g>
</g>
<g>
</g>
<g>
</g>
<g>
</g>
<g>
</g>
<g>
</g>
<g>
</g>
<g>
</g>
<g>
</g>
<g>
</g>
</svg>
