<?xml version="1.0" encoding="iso-8859-1"?>
<!-- Generator: Adobe Illustrator 19.0.0, SVG Export Plug-In . SVG Version: 6.00 Build 0)  -->
<svg version="1.1" id="Layer_1" xmlns="http://www.w3.org/2000/svg" xmlns:xlink="http://www.w3.org/1999/xlink" x="0px" y="0px"
	 viewBox="0 0 491.52 491.52" style="enable-background:new 0 0 491.52 491.52;" xml:space="preserve">
<rect x="0" style="fill:#3EA69B;" width="250.271" height="491.52"/>
<path style="fill:#44C4A1;" d="M217.029,473.647H33.241c0-8.483-6.877-15.36-15.36-15.36V33.233c8.483,0,15.36-6.877,15.36-15.36
	h183.788c0,8.483,6.877,15.36,15.36,15.36v425.053C223.906,458.287,217.029,465.163,217.029,473.647z"/>
<g>
	<ellipse style="fill:#3EA69B;" cx="125.133" cy="245.76" rx="85.371" ry="67.415"/>
	<circle style="fill:#3EA69B;" cx="125.133" cy="54.82" r="15.258"/>
	<circle style="fill:#3EA69B;" cx="125.133" cy="436.685" r="15.258"/>
</g>
<path style="fill:#44C4A1;" d="M193.887,249.403h-12.108c-1.546,15.153-7.573,28.755-18.075,40.791l-14.43-12.104
	c8.072-9.284,12.878-18.837,14.43-28.687h-32.181c-2.983,12.495-6.911,21.644-11.778,27.446c-4.866,5.802-12.081,8.703-21.645,8.703
	s-17.386-3.333-23.474-10.026c-6.081-6.693-9.395-15.396-9.949-26.123h-8.295v-10.606h8.457
	c0.891-12.158,5.035-23.654,12.446-34.489l15.26,10.781c-5.197,7.3-8.403,15.194-9.625,23.708h31.182v-0.499
	c2.99-12.711,7.026-22.048,12.108-28.012c5.089-5.978,12.473-8.96,22.145-8.96c9.679,0,17.562,3.427,23.636,10.282
	c6.088,6.855,9.402,15.909,9.955,27.189h11.94V249.403z M86.822,261.102c2.484,2.82,5.582,4.223,9.287,4.223
	s6.635-1.106,8.788-3.319c2.16-2.199,4.232-6.409,6.223-12.603H82.422C82.867,254.382,84.332,258.282,86.822,261.102z
	 M159.553,226.194c-2.538-3.09-5.744-4.642-9.618-4.642c-3.867,0-6.938,1.214-9.206,3.643c-2.268,2.442-4.394,6.976-6.385,13.601
	h29.852C163.65,233.494,162.098,229.298,159.553,226.194z"/>
<path style="fill:#E1E6E9;" d="M464.771,17.246H218.213c-14.773,0-26.749,11.972-26.749,26.739v420.796
	c0,14.768,11.976,26.739,26.749,26.739h246.557c14.774,0,26.749-11.971,26.749-26.739V43.985
	C491.52,29.218,479.545,17.246,464.771,17.246z"/>
<path style="fill:#EBF0F3;" d="M464.771,0H218.213c-14.773,0-26.749,11.972-26.749,26.739v420.796
	c0,14.768,11.976,26.739,26.749,26.739h246.557c14.774,0,26.749-11.971,26.749-26.739V26.739C491.52,11.972,479.545,0,464.771,0z"/>
<path style="fill:#64798A;" d="M218.21,403.439c-0.48,0-0.868-0.329-0.868-0.736V45.7c0-0.407,0.388-0.739,0.868-0.739h246.563
	c0.48,0,0.868,0.332,0.868,0.739v357.003c0,0.407-0.388,0.736-0.868,0.736H218.21z"/>
<path style="fill:#3A556A;" d="M341.492,463.877c-13.15,0-23.849-10.695-23.849-23.844c0-13.149,10.699-23.844,23.849-23.844
	c13.15,0,23.849,10.695,23.849,23.844C365.341,453.183,354.642,463.877,341.492,463.877z M341.492,424.812
	c-8.391,0-15.223,6.829-15.223,15.221c0,8.392,6.832,15.221,15.223,15.221s15.223-6.829,15.223-15.221
	C356.715,431.642,349.883,424.812,341.492,424.812z"/>
<path style="fill:#64798A;" d="M381.622,28.465h-80.26c-2.06,0-3.73-1.67-3.73-3.73v-5.562c0-2.06,1.67-3.73,3.73-3.73h80.26
	c2.06,0,3.73,1.67,3.73,3.73v5.562C385.352,26.795,383.682,28.465,381.622,28.465z"/>
<ellipse style="fill:#F6C358;" cx="341.504" cy="143.171" rx="73.493" ry="73.462"/>
<ellipse style="fill:#FCD462;" cx="341.504" cy="143.171" rx="61.23" ry="61.204"/>
<g>
	<path style="fill:#DC8744;" d="M341.492,204.377c22.073,0,41.359-11.714,52.132-29.223c-11.023-17.129-30.243-28.485-52.132-28.485
		c-21.889,0-41.109,11.356-52.132,28.485C300.133,192.664,319.419,204.377,341.492,204.377z"/>
	<circle style="fill:#DC8744;" cx="341.504" cy="112.015" r="19.343"/>
</g>
<g>
	<rect x="247.501" y="235.331" style="fill:#EBF0F3;" width="187.935" height="33.884"/>
	<rect x="247.501" y="283.238" style="fill:#EBF0F3;" width="187.935" height="33.884"/>
</g>
<rect x="291.354" y="335.309" style="fill:#2F4859;" width="100.275" height="33.884"/>
<g>
</g>
<g>
</g>
<g>
</g>
<g>
</g>
<g>
</g>
<g>
</g>
<g>
</g>
<g>
</g>
<g>
</g>
<g>
</g>
<g>
</g>
<g>
</g>
<g>
</g>
<g>
</g>
<g>
</g>
</svg>
