<?xml version="1.0" encoding="iso-8859-1"?>
<!-- Generator: Adobe Illustrator 19.0.0, SVG Export Plug-In . SVG Version: 6.00 Build 0)  -->
<svg version="1.1" id="Layer_1" xmlns="http://www.w3.org/2000/svg" xmlns:xlink="http://www.w3.org/1999/xlink" x="0px" y="0px"
	 viewBox="0 0 491.52 491.52" style="enable-background:new 0 0 491.52 491.52;" xml:space="preserve">
<path style="fill:#FCD462;" d="M297.634,0C404.715,0,491.52,62.787,491.52,140.239c0,32.518-15.339,62.428-41.019,86.214
	l33.368,89.924l-122.395-43.693c-19.994,5.042-41.472,7.793-63.84,7.793c-107.082,0-193.888-62.787-193.888-140.239
	S190.552,0,297.634,0z"/>
<path style="fill:#F6C358;" d="M193.888,157.268c-30.409,0-59.315,4.847-85.477,13.504
	c19.275,62.762,96.646,109.706,189.223,109.706c22.369,0,43.847-2.752,63.841-7.793l40.742,14.545
	C384.373,213.438,297.777,157.268,193.888,157.268z"/>
<path style="fill:#DC8744;" d="M291.886,262.167v-19.093c-23.904-2.437-45.359-11.941-64.346-28.501l19.093-22.754
	c14.644,12.729,29.715,20.306,45.253,22.754v-50.745c-19.71-4.704-34.142-10.898-43.295-18.572
	c-9.153-7.673-13.729-19.05-13.729-34.131s5.258-27.416,15.815-37.015c10.558-9.589,24.287-14.815,41.209-15.687v-13.08h16.73
	v13.335c19.178,1.405,37.313,7.939,54.406,19.625l-17.007,24.063c-11.515-8.195-23.967-13.25-37.399-15.177v49.169h0.788
	c20.051,4.715,34.78,11.079,44.189,19.093c9.429,8.025,14.134,19.668,14.134,34.919c0,15.262-5.406,27.692-16.22,37.271
	c-10.813,9.6-25.096,14.825-42.89,15.698v18.827H291.886z M273.432,93.341c-4.449,3.917-6.662,8.802-6.662,14.644
	c0,5.843,1.745,10.462,5.236,13.857c3.47,3.406,10.111,6.673,19.881,9.813V86.402C284.032,87.104,277.88,89.414,273.432,93.341z
	 M328.497,208.027c4.874-4.002,7.322-9.057,7.322-15.166c0-6.098-1.916-10.941-5.747-14.517
	c-3.853-3.576-11.005-6.928-21.456-10.068v47.073C316.982,214.487,323.602,212.04,328.497,208.027z"/>
<path style="fill:#27A2DB;" d="M193.886,175.143C86.805,175.143,0,237.93,0,315.382c0,32.518,15.339,62.428,41.019,86.214
	L7.651,491.52l122.395-43.693c19.994,5.042,41.472,7.793,63.84,7.793c107.082,0,193.888-62.787,193.888-140.239
	S300.968,175.143,193.886,175.143z"/>
<g>
	<circle style="fill:#FFFFFF;" cx="95.898" cy="315.392" r="34.038"/>
	<circle style="fill:#FFFFFF;" cx="193.884" cy="315.392" r="34.038"/>
	<circle style="fill:#FFFFFF;" cx="291.891" cy="315.392" r="34.038"/>
</g>
<g>
</g>
<g>
</g>
<g>
</g>
<g>
</g>
<g>
</g>
<g>
</g>
<g>
</g>
<g>
</g>
<g>
</g>
<g>
</g>
<g>
</g>
<g>
</g>
<g>
</g>
<g>
</g>
<g>
</g>
</svg>
