<?xml version="1.0" encoding="utf-8"?>
<!-- Generator: Adobe Illustrator 24.0.2, SVG Export Plug-In . SVG Version: 6.00 Build 0)  -->
<svg version="1.1" id="Слой_1" xmlns="http://www.w3.org/2000/svg" xmlns:xlink="http://www.w3.org/1999/xlink" x="0px" y="0px"
	 viewBox="0 0 264 264" style="enable-background:new 0 0 264 264;" xml:space="preserve">
<style type="text/css">
	.st0{opacity:0.5;}
	.st1{fill:url(#Rectangle_74_1_);}
	.st2{fill:#F5F5F5;}
	.st3{fill:#E0E0E0;}
	.st4{fill:#6C63FF;}
	.st5{fill:url(#Path_991_1_);}
	.st6{fill:#FDA57D;}
	.st7{fill:#333333;}
	.st8{opacity:0.1;enable-background:new    ;}
	.st9{fill:#FDD835;}
	.st10{fill:url(#Rectangle_85_1_);}
	.st11{fill:url(#Path_1003_1_);}
	.st12{fill:#4D8AF0;}
	.st13{fill:url(#Rectangle_96_1_);}
	.st14{fill:#FFFFFF;}
	.st15{fill:url(#Path_1014_1_);}
	.st16{fill:#BE7C5E;}
	.st17{fill:#3AD29F;}
	.st18{fill:url(#Ellipse_44_1_);}
	.st19{fill:#69F0AE;}
</style>
<g id="Group_542" transform="translate(-280 -299)">
	<g id="undraw_hiring_cyhs" transform="translate(279.922 318.135)">
		<g id="Group_522" transform="translate(121.233 0.023)" class="st0">
			
				<linearGradient id="Rectangle_74_1_" gradientUnits="userSpaceOnUse" x1="-295.0737" y1="506.0022" x2="-295.0737" y2="507.3842" gradientTransform="matrix(24.6332 -163.2652 -118.1636 -17.8284 67317.7578 -39035.3359)">
				<stop  offset="0" style="stop-color:#808080;stop-opacity:0.251"/>
				<stop  offset="0.54" style="stop-color:#808080;stop-opacity:0.122"/>
				<stop  offset="1" style="stop-color:#808080;stop-opacity:0.102"/>
			</linearGradient>
			<polygon id="Rectangle_74" class="st1" points="0,163.3 24.6,0 142.8,17.8 118.2,181.1 			"/>
		</g>
		
			<rect id="Rectangle_75" x="112" y="31.7" transform="matrix(0.1492 -0.9888 0.9888 0.1492 75.0096 267.1138)" class="st2" width="161.5" height="116.5"/>
		
			<rect id="Rectangle_76" x="190.7" y="39.8" transform="matrix(0.1492 -0.9888 0.9888 0.1492 83.5433 260.6838)" class="st3" width="5.1" height="84.1"/>
		
			<rect id="Rectangle_77" x="188.8" y="52.4" transform="matrix(0.1492 -0.9888 0.9888 0.1492 69.4767 269.5176)" class="st3" width="5.1" height="84.1"/>
		
			<rect id="Rectangle_78" x="216.9" y="22.9" transform="matrix(0.1492 -0.9888 0.9888 0.1492 142.6994 254.9171)" class="st3" width="5.1" height="43.3"/>
		
			<rect id="Rectangle_79" x="215" y="39.3" transform="matrix(0.1492 -0.9888 0.9888 0.1492 128.6299 263.7555)" class="st4" width="5.1" height="35.7"/>
		
			<rect id="Rectangle_80" x="181.9" y="69.3" transform="matrix(0.1492 -0.9888 0.9888 0.1492 51.872 272.7259)" class="st3" width="5.1" height="73.9"/>
		
			<rect id="Rectangle_81" x="174.9" y="86.2" transform="matrix(0.1492 -0.9888 0.9888 0.1492 34.266 275.9319)" class="st3" width="5.1" height="63.7"/>
		
			<rect id="Rectangle_82" x="169.3" y="102.1" transform="matrix(0.1492 -0.9888 0.9888 0.1492 17.5487 280.5472)" class="st3" width="5.1" height="56"/>
		
			<rect id="Rectangle_83" x="174.9" y="108.2" transform="matrix(0.1492 -0.9888 0.9888 0.1492 8.7802 297.8243)" class="st3" width="5.1" height="71.3"/>
		
			<rect id="Rectangle_84" x="151.6" y="139.2" transform="matrix(0.1492 -0.9888 0.9888 0.1492 -20.3065 282.7437)" class="st4" width="5.1" height="28"/>
		<g id="Group_523" transform="translate(156.525 26.179)" class="st0">
			
				<linearGradient id="Path_991_1_" gradientUnits="userSpaceOnUse" x1="-323.8591" y1="471.7976" x2="-323.8591" y2="472.7946" gradientTransform="matrix(34.0026 0 0 -34.2165 11029.0439 16287.0371)">
				<stop  offset="0" style="stop-color:#808080;stop-opacity:0.251"/>
				<stop  offset="0.54" style="stop-color:#808080;stop-opacity:0.122"/>
				<stop  offset="1" style="stop-color:#808080;stop-opacity:0.102"/>
			</linearGradient>
			<path id="Path_991" class="st5" d="M33.8,19.5c1.4-9.3-5-17.9-14.3-19.3c-9.3-1.4-17.9,5-19.3,14.3c-0.8,5.6,1.2,11.2,5.3,15.1
				v0.1c0.5,0.6,1.1,1.1,1.7,1.5l0-0.1c0.7,0.8,3.8,2.4,7.6,2.9H15c2.5,0.4,5.1,0.2,7.6-0.6c0,0,0,0,0.1-0.1
				c0.6-0.2,1.2-0.5,1.8-0.8l0.1-0.2C29.5,29.8,33,25.1,33.8,19.5z"/>
		</g>
		<circle id="Ellipse_29" class="st2" cx="173.5" cy="42.6" r="16.5"/>
		<path id="Path_992" class="st6" d="M165.9,48c0,0-3.9-0.3-4,7c0.5,0.6,1,1.1,1.7,1.5l3.3-7.1L165.9,48z"/>
		<path id="Path_993" class="st6" d="M178.5,49.9c0,0,3.8,0.9,1.7,7.8c-0.6,0.4-1.3,0.7-2,0.9l-1.1-7.7L178.5,49.9z"/>
		<path id="Path_994" class="st7" d="M167.9,36.4c0,0-2.7,5.1-3.6,4.4c0,0,8.5,9.9,18.3,2.8c-0.8-1.9-1.8-3.7-3-5.4L167.9,36.4z"/>
		<circle id="Ellipse_30" class="st7" cx="174.2" cy="36.9" r="7.3"/>
		<path id="Path_995" class="st8" d="M178.5,49.9L165.9,48l-1.9,4.9c0,0-1,2.2-0.3,3.4s8.4,4.7,14.8,2.4c0.7-1.3,1-2.7,0.8-4.2
			c-0.3-2.5-0.1-0.2-0.1-0.2L178.5,49.9z"/>
		<path id="Path_996" class="st8" d="M178.6,49.9L166,48l-1.9,4.9c0,0-1,2.2-0.3,3.4s8.4,4.7,14.8,2.4c0.7-1.3,1-2.7,0.8-4.2
			c-0.3-2.5-0.1-0.2-0.1-0.2L178.6,49.9z"/>
		<path id="Path_997" class="st9" d="M178.5,49.9L165.9,48l-1.9,4.9c0,0-1,2.2-0.3,3.4s8.4,4.7,14.8,2.4c0.7-1.3,1-2.7,0.8-4.2
			c-0.3-2.5-0.1-0.2-0.1-0.2L178.5,49.9z"/>
		<path id="Path_998" class="st8" d="M170.4,44.4l5,0.8l-0.7,4.5c-0.2,1.1-1.2,1.9-2.3,1.7l0,0l-1-0.2c-1.1-0.2-1.9-1.2-1.7-2.3
			c0,0,0,0,0,0L170.4,44.4z"/>
		<path id="Path_999" class="st6" d="M170.5,44.2l5,0.8l-0.7,4.5c-0.2,1.1-1.2,1.9-2.3,1.7l0,0l-1-0.2c-1.1-0.2-1.9-1.2-1.7-2.3
			c0,0,0,0,0,0L170.5,44.2z"/>
		<path id="Path_1000" class="st8" d="M170.4,44.9c1.5,0.9,3.3,1.1,5,0.8l0.1-0.6l-5-0.8L170.4,44.9z"/>
		<circle id="Ellipse_31" class="st6" cx="173.9" cy="38.4" r="7.3"/>
		<path id="Path_1001" class="st7" d="M167.4,34.6l13.8,2.1c0,0-0.3-5.7-5.6-6.2S167.4,34.6,167.4,34.6z"/>
		
			<ellipse id="Ellipse_32" transform="matrix(0.1492 -0.9888 0.9888 0.1492 105.3713 196.5693)" class="st6" cx="166.9" cy="37.1" rx="1.3" ry="0.7"/>
		
			<ellipse id="Ellipse_33" transform="matrix(0.1492 -0.9888 0.9888 0.1492 115.2783 212.3472)" class="st6" cx="181" cy="39.2" rx="1.3" ry="0.7"/>
		<path id="Path_1002" class="st8" d="M167.4,34.8l13.8,2.1c0,0-0.3-5.7-5.6-6.2S167.4,34.8,167.4,34.8z"/>
		<g id="Group_524" transform="translate(0.328 23.482)" class="st0">
			
				<linearGradient id="Rectangle_85_1_" gradientUnits="userSpaceOnUse" x1="-171.6761" y1="484.2758" x2="-171.6761" y2="485.2758" gradientTransform="matrix(118.2831 -19.1746 -26.4933 -163.4304 33205.4219 75923.8984)">
				<stop  offset="0" style="stop-color:#808080;stop-opacity:0.251"/>
				<stop  offset="0.54" style="stop-color:#808080;stop-opacity:0.122"/>
				<stop  offset="1" style="stop-color:#808080;stop-opacity:0.102"/>
			</linearGradient>
			<polygon id="Rectangle_85" class="st10" points="0,19.1 118.3,-0.1 144.8,163.4 26.5,182.6 			"/>
		</g>
		
			<rect id="Rectangle_86" x="14.2" y="32.8" transform="matrix(0.9868 -0.1618 0.1618 0.9868 -17.4111 13.2166)" class="st2" width="116.5" height="161.5"/>
		
			<rect id="Rectangle_87" x="28.4" y="103" transform="matrix(0.9868 -0.1618 0.1618 0.9868 -16.1501 12.7906)" class="st3" width="84.1" height="5.1"/>
		
			<rect id="Rectangle_88" x="30.5" y="115.6" transform="matrix(0.9868 -0.1618 0.1618 0.9868 -18.1564 13.2894)" class="st3" width="84.1" height="5.1"/>
		
			<rect id="Rectangle_89" x="62.3" y="59.5" transform="matrix(0.9868 -0.1618 0.1618 0.9868 -8.9326 14.4042)" class="st3" width="43.3" height="5.1"/>
		
			<rect id="Rectangle_90" x="68.2" y="72.1" transform="matrix(0.9868 -0.1618 0.1618 0.9868 -10.9389 14.9028)" class="st4" width="35.7" height="5.1"/>
		
			<rect id="Rectangle_91" x="32.6" y="129" transform="matrix(0.9868 -0.1618 0.1618 0.9868 -20.3619 12.986)" class="st3" width="73.9" height="5.1"/>
		
			<rect id="Rectangle_92" x="34.8" y="142.4" transform="matrix(0.9868 -0.1618 0.1618 0.9868 -22.5671 12.6822)" class="st3" width="63.7" height="5.1"/>
		
			<rect id="Rectangle_93" x="36.9" y="155.6" transform="matrix(0.9868 -0.1618 0.1618 0.9868 -24.7231 12.5793)" class="st3" width="56" height="5.1"/>
		
			<rect id="Rectangle_94" x="38.8" y="166.9" transform="matrix(0.9868 -0.1618 0.1618 0.9868 -26.4294 14.2818)" class="st3" width="71.3" height="5.1"/>
		
			<rect id="Rectangle_95" x="41.2" y="183" transform="matrix(0.9868 -0.1618 0.1618 0.9868 -29.2838 11.3706)" class="st4" width="28" height="5.1"/>
		<g id="Group_525" transform="translate(23.431 56.394)" class="st0">
			
				<linearGradient id="Path_1003_1_" gradientUnits="userSpaceOnUse" x1="-190.9046" y1="448.0544" x2="-190.9046" y2="449.0544" gradientTransform="matrix(34.9611 0 0 -35.0455 6691.7129 15629.1016)">
				<stop  offset="0" style="stop-color:#808080;stop-opacity:0.251"/>
				<stop  offset="0.54" style="stop-color:#808080;stop-opacity:0.122"/>
				<stop  offset="1" style="stop-color:#808080;stop-opacity:0.102"/>
			</linearGradient>
			<path id="Path_1003" class="st11" d="M34.7,14.6c-1.6-9.5-10.6-16-20.1-14.4C5.1,1.8-1.3,10.8,0.2,20.3c0.9,5.7,4.7,10.6,10,13.1
				l0,0.1c0.7,0.4,1.4,0.8,2.2,0.9v-0.1c0.9,0.6,4.5,1.1,8.4,0.5h0.1c2.6-0.4,5.1-1.4,7.2-2.9c0,0,0-0.1,0-0.1
				c0.6-0.4,1-0.8,1.4-1.4v-0.2C33.7,26.1,35.7,20.3,34.7,14.6z"/>
		</g>
		<circle id="Ellipse_34" class="st2" cx="40.9" cy="73.9" r="17"/>
		<path id="Path_1004" class="st12" d="M34.7,81.6c0,0-3.9,1-1.7,8.1c0.6,0.4,1.3,0.7,2.1,0.9l1-8L34.7,81.6z"/>
		<path id="Path_1005" class="st12" d="M47.7,79.5c0,0,4-0.3,4.2,7.1c-0.5,0.6-1,1.1-1.7,1.5l-3.5-7.2L47.7,79.5z"/>
		<circle id="Ellipse_35" class="st7" cx="39.3" cy="68.1" r="7.5"/>
		<path id="Path_1006" class="st12" d="M47.6,79.5l-12.9,2.1L34.3,87c0,0-0.3,2.5,0.7,3.4s9.7,2,15.2-2.3c0.3-1.5,0.1-3-0.5-4.3
			c-1.1-2.3-0.2-0.1-0.2-0.1L47.6,79.5z"/>
		<path id="Path_1007" class="st12" d="M47.8,79.5l-12.9,2.1l-0.4,5.4c0,0-0.3,2.5,0.7,3.4s9.7,2,15.2-2.3c0.3-1.5,0.1-3-0.5-4.3
			c-1.1-2.3-0.2-0.1-0.2-0.1L47.8,79.5z"/>
		<path id="Path_1008" class="st12" d="M47.7,79.5l-12.9,2.1L34.4,87c0,0-0.3,2.5,0.7,3.4s9.7,2,15.2-2.3c0.3-1.5,0.1-3-0.5-4.3
			c-1.1-2.3-0.2-0.1-0.2-0.1L47.7,79.5z"/>
		<path id="Path_1009" class="st8" d="M38,76.7l5.2-0.8l0.8,4.7c0.2,1.1-0.6,2.2-1.7,2.3l0,0L41.1,83c-1.1,0.2-2.2-0.6-2.3-1.7
			c0,0,0,0,0,0L38,76.7z"/>
		<path id="Path_1010" class="st6" d="M38,76.5l5.2-0.8l0.8,4.7c0.2,1.1-0.6,2.2-1.7,2.3l0,0l-1.2,0.2c-1.1,0.2-2.2-0.6-2.3-1.7
			c0,0,0,0,0,0L38,76.5z"/>
		<path id="Path_1011" class="st8" d="M38.1,77.2c1.8,0.4,3.6,0.1,5.2-0.8l-0.1-0.6L38,76.6L38.1,77.2z"/>
		<circle id="Ellipse_36" class="st6" cx="39.6" cy="69.7" r="7.5"/>
		<path id="Path_1012" class="st8" d="M32,68.2l14.1-2.3c0,0-2.1-5.5-7.4-4.3S32,68.2,32,68.2z"/>
		<path id="Path_1013" class="st7" d="M32,68.1l14.2-2.3c0,0-2.1-5.5-7.4-4.3S32,68.1,32,68.1z"/>
		
			<ellipse id="Ellipse_37" transform="matrix(0.9871 -0.16 0.16 0.9871 -10.9482 6.0882)" class="st6" cx="32.3" cy="71" rx="0.7" ry="1.3"/>
		
			<ellipse id="Ellipse_38" transform="matrix(0.9868 -0.1618 0.1618 0.9868 -10.4186 8.4571)" class="st6" cx="46.7" cy="68.2" rx="0.7" ry="1.3"/>
		<g id="Group_526" transform="translate(85.484 49.93)" class="st0">
			
				<linearGradient id="Rectangle_96_1_" gradientUnits="userSpaceOnUse" x1="-256.4583" y1="457.3421" x2="-256.4583" y2="458.3421" gradientTransform="matrix(119.501 0 0 -165.113 30706.7754 75678.25)">
				<stop  offset="0" style="stop-color:#808080;stop-opacity:0.251"/>
				<stop  offset="0.54" style="stop-color:#808080;stop-opacity:0.122"/>
				<stop  offset="1" style="stop-color:#808080;stop-opacity:0.102"/>
			</linearGradient>
			<rect id="Rectangle_96" x="0" y="0" class="st13" width="119.5" height="165.1"/>
		</g>
		<rect id="Rectangle_97" x="87" y="51.1" class="st14" width="116.5" height="161.5"/>
		<g id="Group_527" transform="translate(102.557 70.219)" class="st0">
			
				<linearGradient id="Path_1014_1_" gradientUnits="userSpaceOnUse" x1="-270.1385" y1="431.31" x2="-270.1385" y2="432.31" gradientTransform="matrix(35.74 0 0 -35.8508 9672.625 15498.6738)">
				<stop  offset="0" style="stop-color:#808080;stop-opacity:0.251"/>
				<stop  offset="0.54" style="stop-color:#808080;stop-opacity:0.122"/>
				<stop  offset="1" style="stop-color:#808080;stop-opacity:0.102"/>
			</linearGradient>
			<path id="Path_1014" class="st15" d="M0,17.9C0,8,8,0,17.9,0c9.9,0,17.9,8,17.9,17.9c0,6-3,11.5-7.9,14.8v0.1
				c-0.6,0.6-1.3,1-2,1.3l0-0.1c-0.8,0.7-4.4,1.9-8.4,1.9h-0.1c-2.7,0.1-5.4-0.6-7.8-1.8c0,0,0,0-0.1-0.1c-0.6-0.3-1.2-0.7-1.7-1.2
				l0-0.2C2.9,29.2,0,23.7,0,17.9z"/>
		</g>
		<circle id="Ellipse_39" class="st2" cx="120.4" cy="88.1" r="17.3"/>
		<path id="Path_1015" class="st16" d="M113.6,94.7c0,0-4.1,0.3-3,7.9c0.6,0.5,1.2,1,2,1.3l2.3-7.9L113.6,94.7z"/>
		<path id="Path_1016" class="st16" d="M127,94.7c0,0,4.1,0.3,3,7.9c-0.6,0.5-1.2,1-2,1.3l-2.3-7.9L127,94.7z"/>
		<path id="Path_1017" class="st7" d="M113.8,82.4c0,0-0.3,0.9-0.8,2c-1,2.3,0.1,11.3,2.5,12.3c3.1,1.4,6.5,1.5,9.7,0.4
			c3.1-1.1,4.1-11.4,1.9-13.9c-0.3-0.3-0.5-0.6-0.8-0.9L113.8,82.4z"/>
		<circle id="Ellipse_40" class="st7" cx="120.4" cy="81.8" r="7.7"/>
		<path id="Path_1018" class="st8" d="M126.9,94.7h-13.4l-1.3,5.4c0,0-0.7,2.5,0.2,3.6s9.5,3.6,15.7,0.2c0.5-1.4,0.6-3,0.2-4.5
			c-0.7-2.5-0.2-0.2-0.2-0.2L126.9,94.7z"/>
		<path id="Path_1019" class="st8" d="M127.1,94.7h-13.4l-1.3,5.4c0,0-0.7,2.5,0.2,3.6s9.5,3.6,15.7,0.2c0.5-1.4,0.6-3,0.2-4.5
			c-0.7-2.5-0.2-0.2-0.2-0.2L127.1,94.7z"/>
		<path id="Path_1020" class="st17" d="M127,94.7h-13.4l-1.3,5.4c0,0-0.7,2.5,0.2,3.6s9.5,3.6,15.7,0.2c0.5-1.4,0.6-3,0.2-4.5
			c-0.7-2.5-0.2-0.2-0.2-0.2L127,94.7z"/>
		<path id="Path_1021" class="st8" d="M117.7,90.2h5.4v4.9c0,1.1-0.9,2-2,2h-1.3c-1.1,0-2-0.9-2-2V90.2z"/>
		<path id="Path_1022" class="st16" d="M117.7,90h5.4V95c0,1.1-0.9,2-2,2h-1.3c-1.1,0-2-0.9-2-2V90z"/>
		<path id="Path_1023" class="st8" d="M117.7,90.8c1.7,0.6,3.6,0.6,5.4,0v-0.7h-5.4V90.8z"/>
		<circle id="Ellipse_41" class="st16" cx="120.4" cy="83.5" r="7.7"/>
		<path id="Path_1024" class="st7" d="M113.1,80.6h14.7c0,0-1.3-5.9-6.8-5.5S113.1,80.6,113.1,80.6z"/>
		<ellipse id="Ellipse_42" class="st16" cx="112.9" cy="83.2" rx="0.7" ry="1.3"/>
		<ellipse id="Ellipse_43" class="st16" cx="127.9" cy="83.2" rx="0.7" ry="1.3"/>
		<path id="Path_1025" class="st8" d="M113.1,80.8h14.7c0,0-1.3-5.9-6.8-5.5S113.1,80.8,113.1,80.8z"/>
		<rect id="Rectangle_98" x="102.5" y="121.2" class="st3" width="84.1" height="5.1"/>
		<rect id="Rectangle_99" x="102.5" y="133.9" class="st3" width="84.1" height="5.1"/>
		<rect id="Rectangle_100" x="143.3" y="80.4" class="st3" width="43.3" height="5.1"/>
		<rect id="Rectangle_101" x="147.1" y="93.1" class="st4" width="35.7" height="5.1"/>
		<rect id="Rectangle_102" x="102.5" y="146.6" class="st3" width="73.9" height="5.1"/>
		<rect id="Rectangle_103" x="102.5" y="159.4" class="st3" width="63.7" height="5.1"/>
		<rect id="Rectangle_104" x="102.5" y="172.1" class="st3" width="56" height="5.1"/>
		<rect id="Rectangle_105" x="102.5" y="184.8" class="st3" width="71.3" height="5.1"/>
		<rect id="Rectangle_106" x="102.5" y="197.6" class="st4" width="28" height="5.1"/>
		<g id="Group_528" transform="translate(171.469 174.722)" class="st0">
			
				<linearGradient id="Ellipse_44_1_" gradientUnits="userSpaceOnUse" x1="-340.493" y1="328.9772" x2="-340.493" y2="329.9772" gradientTransform="matrix(50.912 0 0 -50.912 17360.6328 16799.7988)">
				<stop  offset="0" style="stop-color:#808080;stop-opacity:0.251"/>
				<stop  offset="0.54" style="stop-color:#808080;stop-opacity:0.122"/>
				<stop  offset="1" style="stop-color:#808080;stop-opacity:0.102"/>
			</linearGradient>
			<circle id="Ellipse_44" class="st18" cx="25.5" cy="25.5" r="25.5"/>
		</g>
		<circle id="Ellipse_45" class="st19" cx="196.9" cy="200.2" r="24"/>
		<path id="Path_1026" class="st14" d="M186.5,197l9,8.2l12.7-18.7l4.5,3.7l-17.2,22.5l-12.7-14.2L186.5,197z"/>
	</g>
</g>
</svg>
